<svg width="136" height="75" viewBox="0 0 136 75" fill="none" xmlns="http://www.w3.org/2000/svg">
<g clip-path="url(#clip0_56_8)">
<path d="M31.4283 49.2675C31.7121 48.9839 31.854 48.5586 31.854 48.2042C31.783 47.9206 31.6411 47.6371 31.4283 47.4244C31.1445 47.2117 30.7898 47.0699 30.3641 47.0699C30.2222 47.0699 30.0803 47.0699 29.8675 47.1408C28.7324 47.2826 28.1649 47.4244 27.1007 47.5662H26.9588V47.7079L27.3135 49.9055L27.6682 52.4575V52.5992H27.8101C28.9452 52.3866 29.5128 52.3157 30.6479 52.1739C31.3573 52.103 31.783 51.8904 32.0668 51.465C32.3506 51.1106 32.4215 50.7561 32.3506 50.4017C32.2796 49.8346 31.9249 49.4093 31.4283 49.2675ZM27.7392 48.1333C28.5905 47.9915 29.0162 47.9206 29.8675 47.7788C30.0094 47.7788 30.0803 47.7788 30.2222 47.7788C30.506 47.7788 30.7188 47.8497 30.8607 47.9915C31.0026 48.0624 31.0736 48.2042 31.0736 48.4168C31.0736 48.6295 31.0736 48.7713 30.9317 48.913C30.7898 49.0548 30.577 49.1966 30.3641 49.1966C29.3709 49.3384 28.8743 49.4093 27.952 49.551L27.8101 48.8422L27.7392 48.1333ZM31.4992 51.0397C31.3573 51.2524 31.0026 51.3941 30.577 51.465C29.6547 51.6068 29.1581 51.6777 28.3067 51.8195L28.1649 50.8979L28.0939 50.2599C29.0871 50.1181 29.5837 50.0473 30.577 49.9055C30.6479 49.9055 30.7188 49.9055 30.7898 49.9055C31.0026 49.9055 31.2155 49.9764 31.3573 50.1181C31.4992 50.2599 31.5702 50.4017 31.6411 50.5435C31.6411 50.6853 31.5702 50.8979 31.4992 51.0397Z" fill="white"/>
<path d="M37.6004 49.0548C38.3098 48.7713 38.7355 48.2042 38.5936 47.4953C38.5227 47.1408 38.3808 46.7864 38.097 46.5737C37.7423 46.2902 37.3876 46.2193 36.9619 46.2193C36.82 46.2193 36.6781 46.2193 36.5362 46.2193C35.4011 46.3611 34.8336 46.4319 33.6985 46.5737H33.5566V46.7155L33.8404 49.0548L34.1241 51.465V51.6068H34.266L34.6917 51.5359H34.8336V51.3941L34.5498 49.4802C35.4011 49.3384 35.8268 49.3384 36.7491 49.1966C37.3166 49.9055 37.6004 50.2599 38.168 51.0397L38.2389 51.1106H38.3098L38.8065 51.0397H39.0902L39.0193 50.827C38.4517 50.1181 38.168 49.7637 37.6004 49.0548ZM34.5498 48.8422L34.4789 48.4877L34.337 47.2117C35.1883 47.0699 35.6849 47.0699 36.5362 46.9282C36.6781 46.9282 36.7491 46.9282 36.891 46.9282C37.2457 46.9282 37.3876 46.9991 37.6004 47.1408C37.7423 47.2826 37.8132 47.4244 37.8842 47.637C37.9551 48.1333 37.5295 48.4877 36.9619 48.5586C36.0396 48.6295 35.543 48.7004 34.5498 48.8422Z" fill="white"/>
<path d="M41.1477 48.4877L40.8639 45.8648V45.7231L40.722 45.7939H40.651H40.2254H40.0835V46.0066L40.3673 48.4168L40.651 50.7561V50.8979H40.7929L41.2186 50.827H41.3605V50.6853L41.1477 48.4877Z" fill="white"/>
<path d="M47.3907 45.9357C46.8231 45.5104 46.2556 45.2977 45.5461 45.2977C45.4042 45.2977 45.2624 45.2977 45.1205 45.2977C44.2691 45.3686 43.8435 45.4395 43.0631 45.5104H42.9212V45.6522L43.134 48.2042L43.3469 50.4017V50.5435H43.4888C44.2691 50.4726 44.6948 50.4017 45.5461 50.3308C46.4684 50.2599 47.1069 49.9764 47.6745 49.4093C48.1001 48.913 48.313 48.275 48.242 47.5662C48.1711 46.9282 47.8873 46.3611 47.3907 45.9357ZM47.036 49.0548C46.7522 49.3384 46.3265 49.6928 45.4752 49.7637C44.9076 49.8346 44.5529 49.8346 44.0563 49.9055L43.9144 48.2042L43.7016 46.1484C44.2691 46.0775 44.5529 46.0775 45.1205 46.0066C45.2624 46.0066 45.3333 46.0066 45.4752 46.0066C46.1846 46.0066 46.5394 46.2193 46.8231 46.4319C47.1779 46.7155 47.3907 47.1408 47.4616 47.637C47.5326 48.2042 47.3907 48.7004 47.036 49.0548Z" fill="white"/>
<path d="M52.0021 44.8724L51.9312 44.8015H51.8602H51.5055H51.4346H51.3636V44.8724C50.5123 46.8573 50.0866 47.8497 49.3062 49.8346L49.2353 50.0473H49.4481H49.9447H50.0157V49.9764C50.2995 49.3384 50.3704 48.9839 50.6542 48.4168C51.6474 48.3459 52.144 48.3459 53.1372 48.275C53.4919 48.8422 53.6338 49.1257 53.9885 49.7637L54.0595 49.8346H54.1304H54.627H54.8399L54.627 49.551C53.6338 47.7079 53.0663 46.7864 52.0021 44.8724ZM50.867 47.7788C51.1508 46.9991 51.3636 46.5737 51.7183 45.7939C52.144 46.5028 52.3568 46.9282 52.7825 47.637C52.0021 47.7079 51.5764 47.7079 50.867 47.7788Z" fill="white"/>
<path d="M60.0188 49.2675V49.0548V48.913H59.8769C58.5999 48.9839 57.9614 48.9839 56.6844 49.0548L56.6135 47.4953L56.4716 44.8015V44.6597H56.3297H55.975H55.904H55.7621V44.8015L55.904 47.4953L55.975 49.6219V49.7637H56.1169C57.6067 49.6928 58.3871 49.6928 59.8769 49.6219H60.0188V49.4802V49.2675Z" fill="white"/>
<path d="M67.2551 46.6446C67.6098 46.4319 67.8226 46.0066 67.8226 45.6522C67.8226 45.3686 67.6807 45.0851 67.4679 44.8015C67.1132 44.4471 66.6875 44.3053 65.9781 44.3053C64.843 44.3053 64.2754 44.3053 63.1403 44.3762H62.9984V44.518L63.0694 47.4953V49.3384V49.4802H63.2112C64.4173 49.4802 64.9848 49.4801 66.12 49.4093C66.8294 49.4093 67.2551 49.2675 67.6098 48.913C67.8936 48.6295 68.0354 48.275 68.0354 47.8497C68.0354 47.3535 67.7517 46.8573 67.2551 46.6446ZM63.7788 46.5028V45.0851C64.6301 45.0851 65.0558 45.0851 65.9071 45.0851C66.3328 45.0851 66.6166 45.156 66.8294 45.3686C66.9713 45.5104 67.0422 45.6522 67.0422 45.7939C67.0422 46.0066 66.9713 46.1484 66.8294 46.2902C66.6875 46.4319 66.4747 46.5028 66.1909 46.5028C65.1977 46.5028 64.7011 46.5028 63.7788 46.5028ZM67.0422 48.4168C66.8294 48.6295 66.5456 48.7004 66.12 48.7004C65.1977 48.7004 64.7011 48.7004 63.8497 48.7004V47.637V47.0699C64.843 47.0699 65.3396 47.0699 66.4037 47.0699C66.6875 47.0699 66.9713 47.1408 67.1132 47.3535C67.2551 47.4953 67.326 47.637 67.326 47.8497C67.2551 48.1333 67.1841 48.275 67.0422 48.4168Z" fill="white"/>
<path d="M72.1502 44.2344C70.5185 44.2344 69.1706 45.4395 69.1706 46.8573C69.1706 48.3459 70.4476 49.551 72.0793 49.551H72.1502C73.782 49.551 75.059 48.4168 75.059 46.9282C75.059 46.2902 74.8461 45.6522 74.3495 45.156C73.8529 44.5888 73.0016 44.2344 72.1502 44.2344ZM72.1502 48.913C70.9442 48.913 69.951 47.9915 70.0219 46.9282C70.0219 45.8648 71.0151 45.0142 72.1502 45.0142H72.2212C72.8597 45.0142 73.4272 45.2977 73.8529 45.7231C74.2076 46.0775 74.4205 46.5737 74.4205 47.0699C74.2786 48.0624 73.3563 48.913 72.1502 48.913Z" fill="white"/>
<path d="M80.8054 44.6597H80.6635V44.8015L80.5216 47.9206C80.5216 48.6295 79.8831 49.1257 78.9609 49.1257C78.8899 49.1257 78.8899 49.1257 78.819 49.1257C77.8258 49.0548 77.1873 48.5586 77.2582 47.7788L77.3292 44.6597V44.518H77.1873H76.6907H76.5488V44.6597L76.4778 47.7788C76.4069 48.913 77.3292 49.7637 78.748 49.8346C78.819 49.8346 78.819 49.8346 78.8899 49.8346C80.2379 49.8346 81.1601 49.1257 81.1601 47.9915L81.302 44.8724V44.7306H81.1601L80.8054 44.6597Z" fill="white"/>
<path d="M82.6499 44.7306H82.5081V44.8724V45.156V45.2268V45.3686H82.6499C83.4303 45.4395 83.785 45.4395 84.4945 45.5104L84.2107 49.7637V49.9055H84.3526H84.7783H84.9202V49.7637V49.6928L85.2039 45.5104C85.9134 45.5813 86.339 45.5813 87.0485 45.6522H87.1904V45.5104V45.2977V45.0851V44.9433H87.0485C85.3458 44.8724 84.4945 44.8015 82.6499 44.7306Z" fill="white"/>
<path d="M88.6802 45.156L88.5383 45.0851L88.4674 45.2268L88.1127 49.9055V50.0473V50.189H88.2546L88.6802 50.2599H88.8221L88.8931 50.1181V49.8346L89.2478 45.2977V45.156H89.1059H88.6802Z" fill="white"/>
<path d="M93.7882 45.4395C93.6463 45.4395 93.5754 45.4395 93.4335 45.4395C91.9436 45.4395 90.6666 46.5028 90.5957 47.8497C90.4538 49.3384 91.6599 50.6144 93.2206 50.7561C93.3625 50.7561 93.4335 50.7561 93.5754 50.7561C93.7882 50.7561 94.001 50.7561 94.2139 50.6853C94.4267 51.0397 94.5686 51.2524 94.7814 51.6068L94.8524 51.6777H94.9233L95.349 51.6068L95.5618 51.5359L95.4199 51.3233C95.2071 50.9688 95.0652 50.7561 94.8524 50.4017C95.7037 49.9764 96.2712 49.1966 96.3422 48.3459C96.4131 47.7079 96.2003 46.9991 95.7746 46.5028C95.349 45.9357 94.6395 45.5104 93.7882 45.4395ZM95.7037 48.3459C95.6327 48.9839 95.2071 49.6219 94.5686 49.9055C94.3557 49.551 94.2139 49.3384 94.001 48.9839L93.9301 48.913H93.8591H93.7882L93.3625 48.9839L93.1497 49.0548L93.2916 49.1966C93.5044 49.551 93.6463 49.7637 93.8591 50.0473C93.7882 50.0473 93.6463 50.0473 93.5754 50.0473C93.5044 50.0473 93.4335 50.0473 93.3625 50.0473C92.1565 49.9055 91.3051 48.9839 91.3761 47.8497C91.447 46.8573 92.3693 46.0775 93.5044 46.0775C93.5754 46.0775 93.6463 46.0775 93.7173 46.0775C94.3557 46.1484 94.9233 46.4319 95.278 46.8573C95.5618 47.3535 95.7746 47.8497 95.7037 48.3459Z" fill="white"/>
<path d="M102.372 46.5737H102.231V46.7155L101.805 49.8346C101.734 50.4726 101.166 50.8979 100.315 50.8979C100.173 50.8979 100.102 50.8979 99.9604 50.8979C98.9672 50.7561 98.3996 50.189 98.4706 49.4802V49.1966L98.8253 46.3611V46.2193H98.6834L98.1868 46.1484H98.0449V46.2902L97.7611 48.913L97.6902 49.4093C97.5483 50.5435 98.3996 51.465 99.8185 51.6068C99.9604 51.6068 100.102 51.6068 100.244 51.6068C101.45 51.6068 102.302 50.9688 102.372 49.9764L102.727 47.2117L102.798 46.8573V46.7155H102.656L102.372 46.5737Z" fill="white"/>
<path d="M109.112 47.5662C107.48 47.2826 106.629 47.2117 104.997 46.9282H104.855V47.0699L104.43 49.9055L104.146 51.8195V51.9612H104.288C105.991 52.1739 106.771 52.3157 108.474 52.5992H108.616V52.4575V52.3157L108.686 52.0321V51.8904H108.545C107.055 51.6777 106.345 51.5359 104.926 51.3232L105.068 50.4726L105.21 49.6219C105.991 49.7637 106.416 49.8346 107.268 49.9055H107.409V49.7637V49.6928L107.48 49.4093V49.2675H107.339C106.487 49.1257 106.062 49.0548 105.281 48.9839L105.494 47.637C106.842 47.8497 107.551 47.9206 108.97 48.1333H109.112V47.9915V47.7788V47.637V47.4953V47.5662Z" fill="white"/>
<path d="M8.30047 72.5189H8.22953L8.15858 72.5898V72.6607C8.01669 72.9442 7.73292 73.2278 7.44914 73.2278H1.84455V65.0756C1.84455 64.7212 1.98644 64.4376 2.27021 64.3667H2.34116L2.4121 64.2958V64.2249V64.0123V63.8705H2.27021H0.141888H0V64.0123V64.2249V64.2958L0.0709442 64.3667H0.141888C0.425665 64.5085 0.567553 64.7921 0.567553 65.0756V72.9442C0.567553 73.2987 0.425665 73.5822 0.141888 73.6531H0.0709442L0 73.724V73.7949V74.0076V74.1493H0.141888H8.37141H8.5133V74.0076L8.65519 72.6607V72.5189H8.5133H8.30047Z" fill="white"/>
<path d="M19.2968 64.3667C18.4455 63.8705 17.4523 63.6578 16.3172 63.6578C15.182 63.6578 14.1888 63.8705 13.3375 64.3667C12.4862 64.8629 11.8477 65.5009 11.422 66.3516C10.9963 67.1314 10.7835 68.0529 10.7835 69.0454C10.7835 70.0378 10.9963 70.9594 11.422 71.7391C11.8477 72.5189 12.4862 73.2278 13.3375 73.724C14.1888 74.2202 15.182 74.4329 16.3172 74.4329C17.4523 74.4329 18.4455 74.2202 19.2968 73.724C20.1481 73.2278 20.7866 72.5898 21.2123 71.7391C21.638 70.9594 21.8508 70.0378 21.8508 69.0454C21.8508 68.0529 21.638 67.1314 21.2123 66.3516C20.7866 65.5009 20.1481 64.8629 19.2968 64.3667ZM20.0063 71.3847C19.7225 72.0936 19.2259 72.6607 18.5874 73.0151C17.9489 73.4405 17.2394 73.6531 16.3172 73.6531C15.4658 73.6531 14.6854 73.4405 14.0469 73.0151C13.4084 72.5898 12.9828 72.0227 12.6281 71.3847C12.2733 70.6758 12.1314 69.896 12.1314 69.0454C12.1314 68.1947 12.2733 67.4149 12.6281 66.706C12.9118 65.9972 13.4084 65.4301 14.0469 65.0756C14.6854 64.6503 15.3949 64.4376 16.3172 64.4376C17.1685 64.4376 17.9489 64.6503 18.5874 65.0756C19.2259 65.5009 19.6515 66.068 20.0063 66.706C20.361 67.4149 20.5029 68.1947 20.5029 69.0454C20.5029 69.896 20.361 70.6758 20.0063 71.3847Z" fill="white"/>
<path d="M32.7762 63.8705H32.6343V64.0123V64.2249V64.2958L32.7053 64.3667H32.7762C32.8472 64.4376 32.9891 64.4376 33.06 64.5085C33.2019 64.6503 33.2728 64.8629 33.1309 65.0047C33.06 65.1465 33.06 65.2174 33.06 65.2174L29.5837 72.0936L26.2494 64.9338C26.1784 64.7921 26.1784 64.6503 26.3203 64.5085C26.3912 64.4376 26.4622 64.4376 26.5331 64.3667H26.6041L26.675 64.2958V64.2249V64.0123V63.8705H26.5331H24.2629H24.121V64.0123V64.2249V64.2958L24.192 64.3667H24.2629C24.5467 64.5085 24.7595 64.7212 24.9724 65.0756L29.229 74.0784L29.3 74.1493H29.3709H29.5837H29.6547L29.7256 74.0784L34.1951 65.0756C34.2661 64.9338 34.4079 64.7212 34.4789 64.6503C34.5498 64.5794 34.7627 64.4376 34.8336 64.3667H34.9045L34.9755 64.2958V64.2249V64.0123V63.8705H34.8336H32.7762Z" fill="white"/>
<path d="M46.5394 72.5189H46.4684L46.3975 72.5898V72.6607C46.2556 72.9442 45.9718 73.2278 45.688 73.2278H40.0834V68.4783H42.7793C43.0631 68.4783 43.4178 68.7618 43.4888 69.0454V69.1163L43.5597 69.1871H43.6306H43.8435H43.9854V69.0454V66.9896V66.8478H43.8435H43.6306H43.5597L43.4888 66.9187V66.9896C43.3469 67.2732 43.0631 67.5567 42.7793 67.5567H40.0834V64.7212H45.688C45.9718 64.7212 46.3265 65.0047 46.3975 65.2883V65.3592L46.4684 65.4301H46.5394H46.7522H46.8941V65.2883L46.7522 63.9414V63.7996H46.6103H38.3808H38.2389V63.9414V64.1541V64.225L38.3098 64.2958H38.3808C38.6646 64.4376 38.8064 64.7212 38.8064 65.0047V72.8733C38.8064 73.2278 38.6646 73.5113 38.3808 73.5822H38.3098L38.2389 73.6531V73.724V73.9367V74.0784H38.3808H46.6103H46.7522V73.9367L46.8941 72.5898V72.448H46.7522H46.5394V72.5189Z" fill="white"/>
<path d="M58.3871 72.5189H58.3161L58.2452 72.5898V72.6607C58.1033 72.9442 57.8195 73.2278 57.5357 73.2278H51.9312V65.0756C51.9312 64.7212 52.073 64.4376 52.3568 64.3667H52.4278L52.4987 64.2958V64.2249V64.0123V63.8705H52.3568H50.2285H50.0866V64.0123V64.2249V64.2958L50.1576 64.3667H50.2285C50.5123 64.5085 50.6542 64.7921 50.6542 65.0756V72.9442C50.6542 73.2987 50.5123 73.5822 50.2285 73.6531H50.1576L50.0866 73.724V73.7949V74.0076V74.1493H50.2285H58.458H58.5999V74.0076L58.7418 72.6607V72.5189H58.5999H58.3871Z" fill="white"/>
<path d="M66.9004 63.8705H66.7585V64.0123V64.2249V64.2958L66.8294 64.3667L67.0422 64.5085C67.1132 64.5085 67.1841 64.5794 67.1841 64.6503C67.1841 64.7212 67.1841 64.7921 67.1132 64.8629L64.1335 69.1163L61.0829 64.7212C61.012 64.6503 61.012 64.5794 61.012 64.5085C61.012 64.4376 61.0829 64.3667 61.1539 64.3667H61.2248H61.2958V64.2958V64.0832V63.9414H61.1539H59.0256H58.8837V64.0832V64.2958V64.3667L58.9546 64.4376H59.0256C59.3093 64.5794 59.5222 64.7212 59.6641 64.9338L63.2822 70.1796V73.0151C63.2822 73.3696 63.1403 73.6531 62.8565 73.724H62.7856L62.7147 73.7949V73.8658V74.0784V74.2202H62.8565H64.9849H65.1268V74.0784V73.8658V73.724L65.0558 73.6531H64.9849C64.7011 73.5113 64.5592 73.2278 64.5592 72.9442V69.9669L67.9645 65.1465C68.1774 64.7921 68.5321 64.5794 68.8868 64.3667H68.9577L69.0287 64.2958V64.2249V64.0123V63.8705H68.8868H66.9004Z" fill="white"/>
<path d="M85.3459 64.5794C84.5655 64.1541 83.6432 63.8705 82.5081 63.8705H76.1941H76.0522V64.0123V64.2249V64.2958L76.1231 64.3667H76.1941C76.4779 64.5085 76.6197 64.7921 76.6197 65.0756V72.9442C76.6197 73.2987 76.4779 73.5822 76.1941 73.6531H76.1231L76.0522 73.724V73.7949V74.0076V74.1493H76.1941H76.265H76.4069H82.5081C83.5723 74.1493 84.4945 73.8658 85.2749 73.4404C86.0553 72.9442 86.6938 72.3771 87.0485 71.5974C87.4742 70.8176 87.687 69.9669 87.687 69.0454C87.687 68.1238 87.4742 67.2732 87.1195 66.4934C86.7648 65.6427 86.1263 65.0047 85.3459 64.5794ZM84.7074 72.7316C84.1398 73.086 83.4304 73.2987 82.65 73.2987H77.8967V64.7921H82.65C83.4304 64.7921 84.1398 65.0047 84.7074 65.3592C85.2749 65.7136 85.7006 66.2807 85.9844 66.8478C86.2681 67.4858 86.41 68.1947 86.41 68.9745C86.41 69.7543 86.2681 70.4631 85.9844 71.1011C85.7006 71.81 85.2749 72.3062 84.7074 72.7316Z" fill="white"/>
<path d="M100.67 73.0151C100.599 73.0151 100.102 73.2278 99.6766 73.2278C98.2577 73.2278 97.2645 72.3771 96.1294 71.4556L95.9165 71.2429C95.7746 71.1011 95.5618 70.9594 95.349 70.7467H96.2713C96.9098 70.7467 97.4773 70.6049 98.0449 70.3214C98.6124 70.0378 99.0381 69.6125 99.3219 69.0454C99.6056 68.5491 99.8185 67.9112 99.8185 67.344C99.8185 66.706 99.6766 66.1389 99.3219 65.6427C99.0381 65.1465 98.6124 64.7212 98.0449 64.3667C97.4773 64.0832 96.9098 63.9414 96.2713 63.9414H91.0923H90.9504V64.0832V64.2958V64.3667L91.0214 64.4376H91.0923C91.3761 64.5794 91.518 64.8629 91.518 65.1465V73.0151C91.518 73.3696 91.3761 73.6531 91.0923 73.724H91.0214L90.9504 73.7949V73.8658V74.0784V74.2202H91.0923H93.2207H93.3625V74.0784V73.8658V73.724L93.2916 73.6531H93.2207C92.9369 73.5113 92.795 73.2278 92.795 72.9442V69.7543C93.0788 70.0378 93.4335 70.3922 93.7173 70.6758C95.2071 72.2353 97.1226 74.1493 98.9671 74.1493C100.173 74.1493 100.812 73.3696 100.812 73.3696L101.025 73.1569L101.379 72.7316L100.883 72.9442L100.67 73.0151ZM94.3558 69.8251C93.8592 69.3998 93.3625 68.9036 92.795 68.4783V64.7921H95.5618C95.6328 64.7921 95.7037 64.7921 95.7746 64.7921C95.7746 64.7921 95.8456 64.7921 95.9165 64.7921H96.0584C96.1294 64.7921 96.1294 64.7921 96.2003 64.7921C96.555 64.8629 96.9098 64.9338 97.1935 65.0756C97.6192 65.2883 97.9739 65.5718 98.1867 65.9972C98.3996 66.3516 98.5415 66.7769 98.5415 67.2023V67.2732V67.344C98.5415 67.7694 98.3996 68.1947 98.1867 68.5491C97.9739 68.9036 97.6192 69.258 97.1935 69.4707C96.9098 69.6125 96.626 69.6834 96.2713 69.7543C96.0584 69.7543 95.8456 69.8251 95.5618 69.8251H94.3558Z" fill="white"/>
<path d="M111.808 64.7921C112.092 64.7921 112.447 65.0756 112.517 65.3592V65.4301L112.588 65.5009H112.659H112.872H113.014V65.3592L112.872 64.0123V63.8705H112.73H104.501H104.359V64.0123V64.2249V64.2958L104.43 64.3667H104.501C104.785 64.5085 104.926 64.7921 104.926 65.0756V72.9442C104.926 73.2987 104.785 73.5822 104.501 73.6531H104.43L104.359 73.724V73.7949V74.0076V74.1493H104.501H112.73H112.872V74.0076L113.014 72.6607V72.5189H112.872H112.659H112.588L112.517 72.5898V72.6607C112.376 72.9442 112.092 73.2278 111.808 73.2278H106.203V68.4783H108.899C109.183 68.4783 109.538 68.7618 109.609 69.0454V69.1163L109.68 69.1871H109.751H109.963H110.105V69.0454V66.9896V66.8478H109.963H109.751H109.68L109.609 66.9187V66.9896C109.467 67.2732 109.183 67.5567 108.899 67.5567H106.203V64.7212H111.808V64.7921Z" fill="white"/>
<path d="M124.578 71.2429C124.507 70.7467 124.294 70.3214 124.01 69.9669C123.656 69.5416 123.159 69.258 122.662 68.9745C122.521 68.9036 122.45 68.9036 122.308 68.8327C121.882 68.6909 121.315 68.4783 120.676 68.2656C120.038 68.0529 119.541 67.9112 119.186 67.7694C118.973 67.6985 118.761 67.5567 118.619 67.4858C118.548 67.4858 118.548 67.4149 118.477 67.4149C118.406 67.344 118.264 67.2732 118.193 67.2023L118.122 67.1314C117.909 66.9896 117.767 66.7769 117.767 66.5643C117.767 66.4934 117.696 66.3516 117.696 66.2807C117.696 66.2807 117.696 66.2098 117.696 66.1389V66.0681C117.696 65.7845 117.767 65.5009 117.98 65.2174C118.051 65.1465 118.051 65.1465 118.122 65.0756L118.193 65.0047C118.69 64.6503 119.186 64.4376 119.825 64.3667C119.967 64.3667 120.179 64.3667 120.321 64.3667C120.889 64.3667 121.527 64.5085 122.024 64.7212C122.024 64.7212 122.024 64.7212 122.095 64.7212C122.521 65.0047 122.875 65.2883 123.088 65.5718V65.6427L123.159 65.7136H123.23H123.514H123.656V65.5718V64.2958V64.225L123.585 64.1541H123.514C123.23 64.0123 123.017 63.9414 122.662 63.8705C122.379 63.7996 122.166 63.7287 121.882 63.6578C121.315 63.5161 120.747 63.4452 120.321 63.4452C119.612 63.4452 118.902 63.587 118.335 63.7996C117.767 64.0123 117.271 64.3667 116.987 64.7921C116.632 65.2174 116.49 65.7136 116.49 66.2807C116.49 66.3516 116.49 66.3516 116.49 66.4225C116.49 66.4934 116.49 66.5643 116.49 66.5643C116.561 67.0605 116.703 67.4858 117.058 67.7694C117.271 67.982 117.554 68.2656 117.838 68.4074C117.909 68.4074 117.98 68.4783 118.122 68.5491C118.761 68.8327 119.399 69.1163 120.108 69.3289C120.321 69.3998 120.463 69.4707 120.676 69.4707C121.244 69.6125 121.598 69.7543 121.811 69.8251C122.308 69.9669 122.733 70.2505 123.017 70.534C123.159 70.6049 123.23 70.7467 123.301 70.8176C123.443 71.0302 123.514 71.2429 123.514 71.4556C123.514 71.5265 123.514 71.5265 123.514 71.5974C123.514 71.5974 123.514 71.5974 123.514 71.6682C123.514 72.0227 123.372 72.3062 123.159 72.5898C122.946 72.8733 122.662 73.086 122.308 73.2278C122.024 73.3696 121.74 73.4405 121.456 73.5113C121.385 73.5113 121.244 73.5113 121.173 73.5822C121.102 73.5822 121.102 73.5822 121.031 73.5822H120.96H120.889C120.747 73.5822 120.605 73.5822 120.463 73.5822C120.25 73.5822 119.967 73.5822 119.754 73.5822C119.257 73.5822 118.831 73.4405 118.406 73.2278H118.335C118.051 73.086 117.838 72.9442 117.696 72.8025C117.484 72.5898 117.2 72.3062 116.987 71.9518L116.916 71.8809H116.845H116.348H116.207V72.0227V73.2987V73.3696L116.277 73.4405H116.348C116.845 73.7949 117.413 74.0784 117.98 74.2202C118.548 74.4329 119.399 74.5038 120.392 74.5038C121.173 74.5038 121.882 74.362 122.521 74.0784C123.159 73.7949 123.656 73.4405 124.01 73.0151C124.365 72.5189 124.578 72.0227 124.578 71.5265C124.578 71.4556 124.578 71.4556 124.578 71.3847C124.578 71.3847 124.578 71.3138 124.578 71.2429Z" fill="white"/>
<path d="M136.142 71.4556C136.142 71.3847 136.142 71.3138 136.142 71.2429C136.071 70.7467 135.858 70.3214 135.574 69.9669C135.22 69.5416 134.723 69.258 134.226 68.9745C134.084 68.9036 134.014 68.9036 133.872 68.8327C133.446 68.6909 132.878 68.4783 132.24 68.2656C131.601 68.0529 131.105 67.9112 130.75 67.7694C130.537 67.6985 130.324 67.5567 130.183 67.4858C130.112 67.4858 130.112 67.4149 130.041 67.4149C129.97 67.344 129.828 67.2732 129.757 67.2023L129.686 67.1314C129.473 66.9896 129.331 66.7769 129.331 66.5643C129.26 66.4934 129.26 66.3516 129.26 66.2807C129.26 66.2807 129.26 66.2098 129.26 66.1389V66.0681C129.26 65.7845 129.331 65.5009 129.544 65.2174C129.615 65.1465 129.615 65.1465 129.686 65.0756L129.757 65.0047C130.253 64.6503 130.75 64.4376 131.389 64.3667C131.53 64.3667 131.743 64.3667 131.885 64.3667C132.453 64.3667 133.091 64.5085 133.588 64.7212C133.588 64.7212 133.588 64.7212 133.659 64.7212C134.084 65.0047 134.439 65.2883 134.652 65.5718V65.6427L134.723 65.7136H134.794H135.078H135.22V65.5718V64.2958V64.225L135.149 64.1541H135.078C134.794 64.0123 134.581 63.9414 134.226 63.8705C133.943 63.7996 133.73 63.7287 133.446 63.6578C132.878 63.5161 132.311 63.4452 131.885 63.4452C131.176 63.4452 130.466 63.587 129.899 63.7996C129.331 64.0123 128.835 64.3667 128.551 64.7921C128.196 65.2174 128.054 65.7136 128.054 66.2807C128.054 66.3516 128.054 66.3516 128.054 66.4225C128.054 66.4934 128.054 66.5643 128.054 66.5643C128.125 67.0605 128.267 67.4858 128.622 67.7694C128.835 67.982 129.118 68.2656 129.402 68.4074C129.473 68.4074 129.544 68.4783 129.686 68.5491C130.324 68.8327 130.963 69.1163 131.672 69.3289C131.885 69.3998 132.027 69.4707 132.24 69.4707C132.807 69.6125 133.162 69.7543 133.375 69.8251C133.872 69.9669 134.297 70.2505 134.581 70.534C134.723 70.6049 134.794 70.7467 134.865 70.8176C135.007 71.0302 135.078 71.2429 135.078 71.4556C135.078 71.5265 135.078 71.5265 135.078 71.5974C135.078 71.5974 135.078 71.5974 135.078 71.6682C135.078 72.0227 134.936 72.3062 134.723 72.5898C134.51 72.8733 134.226 73.086 133.872 73.2278C133.588 73.3696 133.304 73.4405 133.02 73.5113C132.949 73.5113 132.807 73.5113 132.737 73.5822C132.666 73.5822 132.666 73.5822 132.595 73.5822H132.524H132.453C132.311 73.5822 132.169 73.5822 132.027 73.5822C131.814 73.5822 131.53 73.5822 131.318 73.5822C130.821 73.5822 130.395 73.4405 129.97 73.2278H129.899C129.615 73.086 129.402 72.9442 129.26 72.8025C129.047 72.5898 128.764 72.3062 128.551 71.9518L128.48 71.8809H128.409H128.125H127.983V72.0227V73.2987V73.3696L128.054 73.4405H128.125C128.622 73.7949 129.189 74.0784 129.757 74.2202C130.324 74.4329 131.176 74.5038 132.169 74.5038C132.949 74.5038 133.659 74.362 134.297 74.0784C134.936 73.7949 135.432 73.4405 135.787 73.0151C136.142 72.5189 136.355 72.0227 136.355 71.5265C136.213 71.5265 136.142 71.4556 136.142 71.4556Z" fill="white"/>
<path d="M68.3193 0.141777H67.8936C61.2958 0.141777 55.975 5.45841 55.975 12.051V21.4083C55.975 28.0009 61.2958 33.3176 67.8936 33.3176H68.3193C74.9171 33.3176 80.2379 28.0009 80.2379 21.4083V12.051C80.2379 5.45841 74.8461 0.141777 68.3193 0.141777ZM79.7413 21.4083C79.7413 27.7174 74.6333 32.8214 68.3193 32.8214H67.8936C61.5796 32.8214 56.4716 27.7174 56.4716 21.4083V12.051C56.4716 5.74197 61.5796 0.637996 67.8936 0.637996H68.3193C74.6333 0.637996 79.7413 5.74197 79.7413 12.051V21.4083Z" fill="white"/>
<path d="M68.1064 4.18242C68.3193 4.18242 68.4612 4.04064 68.4612 3.82798C68.3902 3.6862 68.2483 3.54442 68.1064 3.54442C67.8936 3.54442 67.7517 3.6862 67.7517 3.89886C67.7517 4.04064 67.8936 4.18242 68.1064 4.18242Z" fill="white"/>
<path d="M68.1064 29.206C67.8936 29.206 67.7517 29.3478 67.7517 29.5605C67.7517 29.7732 67.8936 29.9149 68.1064 29.9149C68.3193 29.9149 68.4612 29.7732 68.4612 29.5605C68.3902 29.4187 68.2483 29.206 68.1064 29.206Z" fill="white"/>
<path d="M73.711 12.9726C74.2076 12.1928 74.2786 11.2004 73.8529 10.3497C73.4273 9.49906 72.6469 9.00284 71.7246 8.93195C71.6537 8.93195 71.5118 8.93195 71.4408 8.93195C71.2989 8.93195 71.157 8.93195 71.0152 9.00284V8.93195C70.4476 7.86862 69.4544 7.15974 68.2483 7.08885C68.1064 7.08885 67.9646 7.08885 67.8936 7.08885C66.6876 7.15974 65.6234 7.86862 65.1268 8.93195V9.00284C64.9849 9.00284 64.843 8.93195 64.7011 8.93195C64.6302 8.93195 64.4883 8.93195 64.4173 8.93195C63.4951 9.00284 62.7147 9.49906 62.289 10.3497C61.8634 11.2004 61.9343 12.1928 62.4309 12.9726L63.2113 14.1068H62.2181V14.603H65.1268L64.843 18.2183C64.1336 18.5728 63.2822 18.7854 62.2181 18.7854V19.2817C63.2113 19.2817 64.0626 19.069 64.7721 18.7854L64.2045 26.087L64.7011 26.1578L65.2687 18.5728C66.5457 17.793 67.3261 16.6588 67.7517 15.8081V26.1578H68.2483V15.7372C68.674 16.5879 69.4544 17.793 70.7314 18.5019L71.2989 26.087L71.7955 26.0161L71.228 18.7146C71.9374 18.9981 72.7888 19.2108 73.782 19.2108V18.7146C72.7178 18.7146 71.8665 18.5019 71.157 18.1474L70.8733 14.5321H73.782V14.0359H72.7888L73.711 12.9726ZM71.5118 9.49906C71.5827 9.49906 71.6537 9.49906 71.7246 9.49906C72.434 9.56994 73.0725 9.92439 73.4273 10.6333C73.782 11.3422 73.711 12.1219 73.2854 12.7599L72.2922 14.1777H70.9442L70.3767 13.2561L70.9442 12.4055C71.5118 11.5548 71.6537 10.4915 71.3699 9.49906C71.3699 9.49906 71.4408 9.49906 71.5118 9.49906ZM70.3057 14.1068H69.6672L69.951 13.6815L70.3057 14.1068ZM69.951 12.689C69.5253 12.051 69.4544 11.2713 69.8091 10.5624C70.0219 10.1371 70.3767 9.78261 70.8023 9.64083C71.0861 10.4915 70.9442 11.413 70.4476 12.1219L70.0219 12.7599L69.951 12.689ZM65.5525 9.14461C66.0491 8.22306 66.9004 7.65596 67.8936 7.58507C68.0355 7.58507 68.1064 7.58507 68.2483 7.58507C69.2415 7.65596 70.1638 8.22306 70.5895 9.14461C70.0929 9.35728 69.5963 9.78261 69.3834 10.3497C68.9578 11.2004 69.0287 12.1928 69.5253 12.9726L69.6672 13.2561L69.0997 14.1777H67.0423L66.4747 13.2561L66.6166 12.9726C67.1132 12.1928 67.1842 11.2004 66.7585 10.3497C66.4747 9.8535 66.0491 9.42817 65.5525 9.14461ZM66.4038 14.1068H65.7653L66.0491 13.6815L66.4038 14.1068ZM65.3396 9.64083C65.7653 9.8535 66.12 10.1371 66.3328 10.5624C66.6876 11.2713 66.6166 12.051 66.191 12.689L66.12 12.7599L65.6943 12.1219C65.1977 11.413 65.0558 10.4915 65.3396 9.64083ZM62.7856 12.689C62.36 12.051 62.289 11.2713 62.6437 10.5624C62.9985 9.92439 63.637 9.49906 64.3464 9.42817C64.4173 9.42817 64.4883 9.42817 64.5592 9.42817C64.6302 9.42817 64.7011 9.42817 64.7721 9.42817C64.4883 10.4206 64.6302 11.4839 65.1977 12.3346L65.7653 13.1853L65.2687 14.1068H63.7788L62.7856 12.689ZM65.3396 17.9348L65.5525 14.6739H67.6808C67.5389 15.3119 66.9004 16.8715 65.3396 17.9348ZM70.8023 17.9348C69.2416 16.9423 68.6031 15.3119 68.3902 14.6739H70.5185L70.8023 17.9348Z" fill="white"/>
</g>
<defs>
<clipPath id="clip0_56_8">
<rect width="136" height="75" fill="white"/>
</clipPath>
</defs>
</svg>
