<?xml version="1.0" encoding="utf-8"?>
<!-- Generator: Adobe Illustrator 22.0.1, SVG Export Plug-In . SVG Version: 6.00 Build 0)  -->
<svg version="1.1" id="Capa_1" xmlns="http://www.w3.org/2000/svg" xmlns:xlink="http://www.w3.org/1999/xlink" x="0px" y="0px"
	 viewBox="0 0 60.5 81" style="enable-background:new 0 0 60.5 81;" xml:space="preserve">
<style type="text/css">
	.st0{fill:#977D85;}
</style>
<path class="st0" d="M30.2,1.4h-1C13.6,1.4,0.9,14.1,0.9,29.7V52c0,15.7,12.6,28.3,28.3,28.3h1c15.7,0,28.3-12.6,28.3-28.3V29.7
	C58.5,14.1,45.7,1.4,30.2,1.4 M57.3,52c0,15-12.1,27.1-27.1,27.1h-1c-15,0-27.1-12.1-27.1-27.1V29.7c0-15,12.1-27.1,27.1-27.1h1
	c15,0,27.1,12.1,27.1,27.1V52z"/>
<path class="st0" d="M29.7,11c0.5,0,0.8-0.3,0.8-0.8c-0.2-0.3-0.5-0.7-0.8-0.7c-0.5,0-0.8,0.3-0.8,0.8C28.9,10.7,29.2,11,29.7,11"/>
<path class="st0" d="M30.1,29.9c-0.3,0-0.5,0.2-0.5,0.5s0.2,0.5,0.5,0.5s0.5-0.2,0.5-0.5C30.5,30.2,30.3,29.9,30.1,29.9"/>
<path class="st0" d="M43,31.9c1.2-1.9,1.3-4.2,0.3-6.2c-1-2-2.9-3.2-5.1-3.4c-0.2,0-0.5,0-0.7,0c-0.3,0-0.7,0-1,0.2v-0.2
	c-1.3-2.5-3.7-4.2-6.6-4.4c-0.3,0-0.7,0-0.8,0c-2.9,0.2-5.4,1.9-6.6,4.4v0.2c-0.3,0-0.7-0.2-1-0.2c-0.2,0-0.5,0-0.7,0
	c-2.2,0.2-4,1.3-5.1,3.4s-0.8,4.4,0.3,6.2l1.9,2.7h-2.4v1.2h6.9L22,44.4c-1.7,0.8-3.7,1.3-6.2,1.3v1.2c2.4,0,4.4-0.5,6.1-1.2
	l-1.3,17.3l1.2,0.2l1.3-18c3-1.9,4.9-4.5,5.9-6.6v24.6h1.2V38.5c1,2,2.9,4.9,5.9,6.6l1.3,18l1.2-0.2l-1.3-17.3
	c1.7,0.7,3.7,1.2,6.1,1.2v-1.2c-2.5,0-4.5-0.5-6.2-1.3l-0.7-8.6h6.9v-1.2h-2.4L43,31.9z M37.8,23.7c0.2,0,0.3,0,0.5,0
	c1.7,0.2,3.2,1,4,2.7c0.8,1.7,0.7,3.5-0.3,5.1l-2.4,3.4h-3.2l-1.3-2.2l1.3-2c1.3-2,1.7-4.5,1-6.9C37.5,23.7,37.6,23.7,37.8,23.7
	 M34.9,34.6h-1.5l0.7-1L34.9,34.6z M34.1,31.2c-1-1.5-1.2-3.4-0.3-5.1c0.5-1,1.3-1.9,2.4-2.2c0.7,2,0.3,4.2-0.8,5.9l-1,1.5
	L34.1,31.2z M23.7,22.8c1.2-2.2,3.2-3.5,5.6-3.7c0.3,0,0.5,0,0.8,0c2.4,0.2,4.5,1.5,5.6,3.7l0,0c-1.2,0.5-2.4,1.5-2.9,2.9
	c-1,2-0.8,4.4,0.3,6.2l0.3,0.7l-1.3,2.2h-4.9l-1.3-2.2l0.3-0.7c1.2-1.9,1.3-4.2,0.3-6.2C25.9,24.5,24.8,23.5,23.7,22.8
	C23.7,23,23.7,22.8,23.7,22.8 M25.7,34.6h-1.5l0.7-1L25.7,34.6z M23.2,24c1,0.5,1.9,1.2,2.4,2.2c0.8,1.7,0.7,3.5-0.3,5.1L25,31.4
	l-1-1.5C22.8,28.2,22.5,26,23.2,24 M17.1,31.2c-1-1.5-1.2-3.4-0.3-5.1c0.8-1.5,2.4-2.5,4-2.7c0.2,0,0.3,0,0.5,0c0.2,0,0.3,0,0.5,0
	c-0.7,2.4-0.3,4.9,1,6.9l1.3,2L23,34.6h-3.5L17.1,31.2z M23.2,43.7l0.5-7.7h5.1C28.4,37.5,26.9,41.2,23.2,43.7 M36.1,43.7
	c-3.7-2.4-5.2-6.2-5.7-7.7h5.1L36.1,43.7z"/>
</svg>
