<?xml version="1.0" encoding="utf-8"?>
<!-- Generator: Adobe Illustrator 22.0.1, SVG Export Plug-In . SVG Version: 6.00 Build 0)  -->
<svg version="1.1" id="Capa_1" xmlns="http://www.w3.org/2000/svg" xmlns:xlink="http://www.w3.org/1999/xlink" x="0px" y="0px"
	 viewBox="0 0 191.7 105.8" style="enable-background:new 0 0 191.7 105.8;" xml:space="preserve">
<style type="text/css">
	.st0{fill:#977D85;}
</style>
<path class="st0" d="M44.3,69.5c0.4-0.4,0.6-1,0.6-1.5c-0.1-0.4-0.3-0.8-0.6-1.1c-0.4-0.3-0.9-0.5-1.5-0.5c-0.2,0-0.4,0-0.7,0.1
	c-1.6,0.2-2.4,0.4-3.9,0.6l-0.2,0l0,0.2l0.5,3.1L39,74l0,0.2l0.2,0c1.6-0.3,2.4-0.4,4-0.6c1-0.1,1.6-0.4,2-1c0.4-0.5,0.5-1,0.4-1.5
	C45.5,70.3,45,69.7,44.3,69.5 M39.1,67.9c1.2-0.2,1.8-0.3,3-0.5c0.2,0,0.3,0,0.5,0c0.4,0,0.7,0.1,0.9,0.3c0.2,0.1,0.3,0.3,0.3,0.6
	c0,0.3,0,0.5-0.2,0.7c-0.2,0.2-0.5,0.4-0.8,0.4c-1.4,0.2-2.1,0.3-3.4,0.5l-0.2-1L39.1,67.9z M44.4,72c-0.2,0.3-0.7,0.5-1.3,0.6
	c-1.3,0.2-2,0.3-3.2,0.5l-0.2-1.3l-0.1-0.9c1.4-0.2,2.1-0.3,3.5-0.5c0.1,0,0.2,0,0.3,0c0.3,0,0.6,0.1,0.8,0.3
	c0.2,0.2,0.3,0.4,0.4,0.6C44.6,71.5,44.5,71.8,44.4,72"/>
<path class="st0" d="M53,69.2c1-0.4,1.6-1.2,1.4-2.2c-0.1-0.5-0.3-1-0.7-1.3c-0.5-0.4-1-0.5-1.6-0.5c-0.2,0-0.4,0-0.6,0
	c-1.6,0.2-2.4,0.3-4,0.5l-0.2,0l0,0.2l0.4,3.3l0.4,3.4l0,0.2l0.2,0l0.6-0.1l0.2,0l0-0.2l-0.4-2.7c1.2-0.2,1.8-0.2,3.1-0.4
	c0.8,1,1.2,1.5,2,2.6l0.1,0.1l0.1,0l0.7-0.1l0.4,0L55,71.7C54.2,70.7,53.8,70.2,53,69.2 M48.7,68.9l-0.1-0.5l-0.2-1.8
	c1.2-0.2,1.9-0.2,3.1-0.4c0.2,0,0.3,0,0.5,0c0.5,0,0.7,0.1,1,0.3c0.2,0.2,0.3,0.4,0.4,0.7c0.1,0.7-0.5,1.2-1.3,1.3
	C50.8,68.6,50.1,68.7,48.7,68.9"/>
<polygon class="st0" points="58,68.4 57.6,64.7 57.6,64.5 57.4,64.6 57.3,64.6 56.7,64.6 56.5,64.6 56.5,64.9 56.9,68.3 57.3,71.6 
	57.3,71.8 57.5,71.8 58.1,71.7 58.3,71.7 58.3,71.5 "/>
<path class="st0" d="M66.8,64.8c-0.8-0.6-1.6-0.9-2.6-0.9c-0.2,0-0.4,0-0.6,0c-1.2,0.1-1.8,0.2-2.9,0.3l-0.2,0l0,0.2l0.3,3.6
	l0.3,3.1l0,0.2l0.2,0c1.1-0.1,1.7-0.2,2.9-0.3c1.3-0.1,2.2-0.5,3-1.3c0.6-0.7,0.9-1.6,0.8-2.6C67.9,66.2,67.5,65.4,66.8,64.8
	 M66.3,69.2c-0.4,0.4-1,0.9-2.2,1c-0.8,0.1-1.3,0.1-2,0.2L61.9,68l-0.3-2.9c0.8-0.1,1.2-0.1,2-0.2c0.2,0,0.3,0,0.5,0
	c1,0,1.5,0.3,1.9,0.6c0.5,0.4,0.8,1,0.9,1.7C67,68,66.8,68.7,66.3,69.2"/>
<path class="st0" d="M73.3,63.3l-0.1-0.1l-0.1,0l-0.5,0l-0.1,0l-0.1,0l0,0.1c-1.2,2.8-1.8,4.2-2.9,7l-0.1,0.3l0.3,0l0.7,0l0.1,0
	l0-0.1c0.4-0.9,0.5-1.4,0.9-2.2c1.4-0.1,2.1-0.1,3.5-0.2c0.5,0.8,0.7,1.2,1.2,2.1l0.1,0.1l0.1,0l0.7,0l0.3,0L77,69.9
	C75.6,67.3,74.8,66,73.3,63.3 M71.7,67.4c0.4-1.1,0.7-1.7,1.2-2.8c0.6,1,0.9,1.6,1.5,2.6C73.3,67.3,72.7,67.3,71.7,67.4"/>
<path class="st0" d="M84.6,69.5l0-0.3l0-0.2l-0.2,0c-1.8,0.1-2.7,0.1-4.5,0.2l-0.1-2.2l-0.2-3.8l0-0.2l-0.2,0l-0.5,0l-0.1,0l-0.2,0
	l0,0.2l0.2,3.8l0.1,3l0,0.2l0.2,0c2.1-0.1,3.2-0.1,5.3-0.2l0.2,0l0-0.2L84.6,69.5z"/>
<path class="st0" d="M94.8,65.8c0.5-0.3,0.8-0.9,0.8-1.4c0-0.4-0.2-0.8-0.5-1.2c-0.5-0.5-1.1-0.7-2.1-0.7l0,0c-1.6,0-2.4,0-4,0.1
	l-0.2,0l0,0.2l0.1,4.2l0,2.6l0,0.2l0.2,0c1.7,0,2.5,0,4.1-0.1c1,0,1.6-0.2,2.1-0.7c0.4-0.4,0.6-0.9,0.6-1.5
	C95.9,66.8,95.5,66.1,94.8,65.8 M89.9,65.6l0-2c1.2,0,1.8,0,3,0h0c0.6,0,1,0.1,1.3,0.4c0.2,0.2,0.3,0.4,0.3,0.6
	c0,0.3-0.1,0.5-0.3,0.7c-0.2,0.2-0.5,0.3-0.9,0.3C91.9,65.6,91.2,65.6,89.9,65.6L89.9,65.6z M94.5,68.3c-0.3,0.3-0.7,0.4-1.3,0.4
	c-1.3,0-2,0-3.2,0l0-1.5l0-0.8c1.4,0,2.1,0,3.6,0h0c0.4,0,0.8,0.1,1,0.4c0.2,0.2,0.3,0.4,0.3,0.7C94.8,67.9,94.7,68.1,94.5,68.3"/>
<path class="st0" d="M101.7,62.4L101.7,62.4c-2.3,0-4.2,1.7-4.2,3.7c0,2.1,1.8,3.8,4.1,3.8l0.1,0c2.3,0,4.1-1.6,4.1-3.7
	c0-0.9-0.3-1.8-1-2.5C104.1,62.9,102.9,62.4,101.7,62.4 M101.7,69L101.7,69c-1.7,0-3.1-1.3-3-2.8c0-1.5,1.4-2.7,3-2.7l0.1,0
	c0.9,0,1.7,0.4,2.3,1c0.5,0.5,0.8,1.2,0.8,1.9C104.7,67.8,103.4,69,101.7,69"/>
<path class="st0" d="M113.9,63l-0.2,0l0,0.2l-0.2,4.4c0,1-0.9,1.7-2.2,1.7c-0.1,0-0.1,0-0.2,0c-1.4-0.1-2.3-0.8-2.2-1.9L109,63
	l0-0.2l-0.2,0l-0.7,0l-0.2,0l0,0.2l-0.1,4.4c-0.1,1.6,1.2,2.8,3.2,2.9c0.1,0,0.1,0,0.2,0c1.9,0,3.2-1,3.2-2.6l0.2-4.4l0-0.2l-0.2,0
	L113.9,63z"/>
<path class="st0" d="M116.5,63.1l-0.2,0l0,0.2l0,0.4l0,0.1l0,0.2l0.2,0c1.1,0.1,1.6,0.1,2.6,0.2l-0.4,6l0,0.2l0.2,0l0,0l0.6,0l0.2,0
	l0-0.2l0-0.1l0.4-5.9c1,0.1,1.6,0.1,2.6,0.2l0.2,0l0-0.2l0-0.3l0-0.3l0-0.2l-0.2,0C120.3,63.3,119.1,63.2,116.5,63.1"/>
<polygon class="st0" points="125,63.7 124.8,63.6 124.7,63.8 124.2,70.4 124.2,70.6 124.2,70.8 124.4,70.8 125,70.9 125.2,70.9 
	125.3,70.7 125.3,70.3 125.8,63.9 125.8,63.7 125.6,63.7 "/>
<path class="st0" d="M132.2,64.1c-0.2,0-0.3,0-0.5,0h0c-2.1,0-3.9,1.5-4,3.4c-0.2,2.1,1.5,3.9,3.7,4.1c0.2,0,0.3,0,0.5,0
	c0.3,0,0.6,0,0.9-0.1c0.3,0.5,0.5,0.8,0.8,1.3l0.1,0.1l0.1,0l0.6-0.1l0,0l0.3-0.1l-0.2-0.3c-0.3-0.5-0.5-0.8-0.8-1.3
	c1.2-0.6,2-1.7,2.1-2.9c0.1-0.9-0.2-1.9-0.8-2.6C134.4,64.8,133.4,64.2,132.2,64.1 M134.9,68.2c-0.1,0.9-0.7,1.8-1.6,2.2
	c-0.3-0.5-0.5-0.8-0.8-1.3l-0.1-0.1l-0.1,0l-0.1,0l-0.6,0.1l-0.3,0.1l0.2,0.2c0.3,0.5,0.5,0.8,0.8,1.2c-0.1,0-0.3,0-0.4,0
	c-0.1,0-0.2,0-0.3,0c-1.7-0.2-2.9-1.5-2.8-3.1c0.1-1.4,1.4-2.5,3-2.5c0.1,0,0.2,0,0.3,0c0.9,0.1,1.7,0.5,2.2,1.1
	C134.7,66.8,135,67.5,134.9,68.2"/>
<path class="st0" d="M144.3,65.7l-0.2,0l0,0.2l-0.6,4.4c-0.1,0.9-0.9,1.5-2.1,1.5c-0.2,0-0.3,0-0.5,0c-1.4-0.2-2.2-1-2.1-2l0-0.4
	l0.5-4l0-0.2l-0.2,0l-0.7-0.1l-0.2,0l0,0.2l-0.4,3.7l-0.1,0.7c-0.2,1.6,1,2.9,3,3.1c0.2,0,0.4,0,0.6,0c1.7,0,2.9-0.9,3-2.3l0.5-3.9
	l0.1-0.5l0-0.2l-0.2,0L144.3,65.7z M141.5,72.5C141.5,72.5,141.4,72.5,141.5,72.5C141.5,72.5,141.5,72.5,141.5,72.5
	C141.5,72.5,141.5,72.5,141.5,72.5"/>
<path class="st0" d="M153.8,67.1c-2.3-0.4-3.5-0.5-5.8-0.9l-0.2,0l0,0.2l-0.6,4l-0.4,2.7l0,0.2l0.2,0c2.4,0.3,3.5,0.5,5.9,0.9l0.2,0
	l0-0.2l0-0.2l0.1-0.4l0-0.2l-0.2,0c-2.1-0.3-3.1-0.5-5.1-0.8l0.2-1.2l0.2-1.2c1.1,0.2,1.7,0.3,2.9,0.4l0.2,0l0-0.2l0-0.1l0.1-0.4
	l0-0.2l-0.2,0c-1.2-0.2-1.8-0.3-2.9-0.4l0.3-1.9c1.9,0.3,2.9,0.4,4.9,0.7l0.2,0l0-0.2l0-0.3l0-0.2l0-0.2L153.8,67.1z"/>
<path class="st0" d="M11.7,102.3h-0.1l-0.1,0.1l0,0.1c-0.2,0.4-0.6,0.8-1,0.8H2.6V91.8c0-0.5,0.2-0.9,0.6-1l0.1,0l0.1-0.1v-0.1v-0.3
	v-0.2H3.2h-3H0v0.2v0.3v0.1l0.1,0.1l0.1,0c0.4,0.2,0.6,0.6,0.6,1v11.1c0,0.5-0.2,0.9-0.6,1l-0.1,0L0,104v0.1v0.3v0.2h0.2h11.6H12
	l0-0.2l0.2-1.9l0-0.2h-0.2H11.7z"/>
<path class="st0" d="M27.2,90.8c-1.2-0.7-2.6-1-4.2-1c-1.6,0-3,0.3-4.2,1c-1.2,0.7-2.1,1.6-2.7,2.8c-0.6,1.1-0.9,2.4-0.9,3.8
	c0,1.4,0.3,2.7,0.9,3.8c0.6,1.1,1.5,2.1,2.7,2.8c1.2,0.7,2.6,1,4.2,1c1.6,0,3-0.3,4.2-1c1.2-0.7,2.1-1.6,2.7-2.8
	c0.6-1.1,0.9-2.4,0.9-3.8c0-1.4-0.3-2.7-0.9-3.8C29.3,92.4,28.4,91.5,27.2,90.8 M28.2,100.7c-0.4,1-1.1,1.8-2,2.3
	c-0.9,0.6-1.9,0.9-3.2,0.9c-1.2,0-2.3-0.3-3.2-0.9c-0.9-0.6-1.5-1.4-2-2.3c-0.5-1-0.7-2.1-0.7-3.3c0-1.2,0.2-2.3,0.7-3.3
	c0.4-1,1.1-1.8,2-2.3c0.9-0.6,1.9-0.9,3.2-0.9c1.2,0,2.3,0.3,3.2,0.9c0.9,0.6,1.5,1.4,2,2.3c0.5,1,0.7,2.1,0.7,3.3
	C28.9,98.6,28.7,99.7,28.2,100.7"/>
<path class="st0" d="M46.2,90.1H46v0.2v0.3v0.1l0.1,0.1l0.1,0c0.1,0.1,0.3,0.1,0.4,0.2c0.2,0.2,0.3,0.5,0.1,0.7
	c-0.1,0.2-0.1,0.3-0.1,0.3l-4.9,9.7L37,91.6c-0.1-0.2-0.1-0.4,0.1-0.6l0,0l0,0c0.1-0.1,0.2-0.1,0.3-0.2l0.1,0l0.1-0.1v-0.1v-0.3
	v-0.2h-0.2h-3.2h-0.2v0.2v0.3v0.1l0.1,0.1l0.1,0c0.4,0.2,0.7,0.5,1,1l6,12.7l0.1,0.1h0.1h0.3h0.1l0.1-0.1l6.3-12.7
	c0.1-0.2,0.3-0.5,0.4-0.6c0.1-0.1,0.4-0.3,0.5-0.4c0,0,0,0,0,0l0.1,0l0.1-0.1v-0.1v-0.3v-0.2h-0.2H46.2z"/>
<path class="st0" d="M65.6,102.3h-0.1l-0.1,0.1l0,0.1c-0.2,0.4-0.6,0.8-1,0.8h-7.9v-6.7h3.8c0.4,0,0.9,0.4,1,0.8l0,0.1l0.1,0.1h0.1
	h0.3H62v-0.2v-2.9v-0.2h-0.2h-0.3h-0.1l-0.1,0.1l0,0.1c-0.2,0.4-0.6,0.8-1,0.8h-3.8v-4h7.9c0.4,0,0.9,0.4,1,0.8l0,0.1l0.1,0.1h0.1
	h0.3h0.2l0-0.2l-0.2-1.9l0-0.2h-0.2H54.1h-0.2v0.2v0.3v0.1l0.1,0.1l0.1,0c0.4,0.2,0.6,0.6,0.6,1v11.1c0,0.5-0.2,0.9-0.6,1l-0.1,0
	l-0.1,0.1v0.1v0.3v0.2h0.2h11.6h0.2l0-0.2l0.2-1.9l0-0.2h-0.2H65.6z"/>
<path class="st0" d="M82.3,102.3h-0.1l-0.1,0.1l0,0.1c-0.2,0.4-0.6,0.8-1,0.8h-7.9V91.8c0-0.5,0.2-0.9,0.6-1l0.1,0l0.1-0.1v-0.1
	v-0.3v-0.2h-0.2h-3h-0.2v0.2v0.3v0.1l0.1,0.1l0.1,0c0.4,0.2,0.6,0.6,0.6,1v11.1c0,0.5-0.2,0.9-0.6,1l-0.1,0l-0.1,0.1v0.1v0.3v0.2
	h0.2h11.6h0.2l0-0.2l0.2-1.9l0-0.2h-0.2H82.3z"/>
<path class="st0" d="M94.3,90.1h-0.2v0.2v0.3v0.1l0.1,0.1l0.3,0.2c0.1,0,0.2,0.1,0.2,0.2c0,0.1,0,0.2-0.1,0.3l-4.2,6l-4.3-6.2
	c-0.1-0.1-0.1-0.2-0.1-0.3c0-0.1,0.1-0.2,0.2-0.2l0.1,0l0.1,0v-0.1v-0.3v-0.2h-0.2h-3h-0.2v0.2v0.3v0.1l0.1,0.1l0.1,0
	c0.4,0.2,0.7,0.4,0.9,0.7l5.1,7.4v4c0,0.5-0.2,0.9-0.6,1l-0.1,0l-0.1,0.1v0.1v0.3v0.2h0.2h3h0.2v-0.2v-0.3V104l-0.1-0.1l-0.1,0
	c-0.4-0.2-0.6-0.6-0.6-1v-4.2l4.8-6.8c0.3-0.5,0.8-0.8,1.3-1.1l0.1,0l0.1-0.1v-0.1v-0.3v-0.2h-0.2H94.3z"/>
<path class="st0" d="M120.3,91.1c-1.1-0.6-2.4-1-4-1h-8.9h-0.2v0.2v0.3v0.1l0.1,0.1l0.1,0c0.4,0.2,0.6,0.6,0.6,1v11.1
	c0,0.5-0.2,0.9-0.6,1l-0.1,0l-0.1,0.1v0.1v0.3v0.2h0.2h0.1h0.2v0h8.6c1.5,0,2.8-0.4,3.9-1c1.1-0.7,2-1.5,2.5-2.6
	c0.6-1.1,0.9-2.3,0.9-3.6c0-1.3-0.3-2.5-0.8-3.6C122.3,92.6,121.4,91.7,120.3,91.1 M108.2,102.9c0,0.2,0,0.4-0.1,0.6
	C108.2,103.3,108.2,103.1,108.2,102.9L108.2,102.9z M119.4,102.6c-0.8,0.5-1.8,0.8-2.9,0.8h-6.7v-12h6.7c1.1,0,2.1,0.3,2.9,0.8
	c0.8,0.5,1.4,1.3,1.8,2.1c0.4,0.9,0.6,1.9,0.6,3c0,1.1-0.2,2.1-0.6,3C120.8,101.3,120.2,102,119.4,102.6"/>
<path class="st0" d="M141.9,103c-0.1,0-0.8,0.3-1.4,0.3c-2,0-3.4-1.2-5-2.5l-0.3-0.3c-0.2-0.2-0.5-0.4-0.8-0.7l1.3,0
	c0.9,0,1.7-0.2,2.5-0.6c0.8-0.4,1.4-1,1.8-1.8c0.4-0.7,0.7-1.6,0.7-2.4c0-0.9-0.2-1.7-0.7-2.4c-0.4-0.7-1-1.3-1.8-1.8
	c-0.8-0.4-1.6-0.6-2.5-0.6h-7.3h-0.2v0.2v0.3v0.1l0.1,0.1l0.1,0c0.4,0.2,0.6,0.6,0.6,1v11.1c0,0.5-0.2,0.9-0.6,1l-0.1,0l-0.1,0.1
	v0.1v0.3v0.2h0.2h3h0.2v-0.2v-0.3V104l-0.1-0.1l-0.1,0c-0.4-0.2-0.6-0.6-0.6-1v-4.5c0.4,0.4,0.9,0.9,1.3,1.3l0,0
	c2.1,2.2,4.8,4.9,7.4,4.9c1.7,0,2.6-1.1,2.6-1.1l0.3-0.3l0.5-0.6l-0.7,0.3L141.9,103z M128.4,104.4L128.4,104.4v-0.3V104.4z
	 M133,98.5c-0.7-0.6-1.4-1.3-2.2-1.9l0-5.2h3.9c0.1,0,0.2,0,0.3,0c0,0,0.1,0,0.2,0l0.2,0l0,0c0.1,0,0.1,0,0.2,0
	c0.5,0.1,1,0.2,1.4,0.4c0.6,0.3,1.1,0.7,1.4,1.3c0.3,0.5,0.5,1.1,0.5,1.7l0,0.1l0,0.1c0,0.6-0.2,1.2-0.5,1.7c-0.3,0.5-0.8,1-1.4,1.3
	c-0.4,0.2-0.8,0.3-1.3,0.4c-0.3,0-0.6,0.1-1,0.1L133,98.5z"/>
<path class="st0" d="M157.6,91.4c0.4,0,0.9,0.4,1,0.8l0,0.1l0.1,0.1h0.1h0.3h0.2l0-0.2l-0.2-1.9l0-0.2h-0.2h-11.6h-0.2v0.2v0.3v0.1
	l0.1,0.1l0.1,0c0.4,0.2,0.6,0.6,0.6,1v11.1c0,0.5-0.2,0.9-0.6,1l-0.1,0l-0.1,0.1v0.1v0.3v0.2h0.2h11.6h0.2l0-0.2l0.2-1.9l0-0.2h-0.2
	h-0.3h-0.1l-0.1,0.1l0,0.1c-0.2,0.4-0.6,0.8-1,0.8h-7.9v-6.7h3.8c0.4,0,0.9,0.4,1,0.8l0,0.1l0.1,0.1h0.1h0.3h0.2v-0.2v-2.9v-0.2H155
	h-0.3h-0.1l-0.1,0.1l0,0.1c-0.2,0.4-0.6,0.8-1,0.8h-3.8v-4H157.6z"/>
<path class="st0" d="M175.6,100.5c-0.1-0.7-0.4-1.3-0.8-1.8c-0.5-0.6-1.2-1-1.9-1.4c-0.2-0.1-0.3-0.1-0.5-0.2
	c-0.6-0.2-1.4-0.5-2.3-0.8c-0.9-0.3-1.6-0.5-2.1-0.7c-0.3-0.1-0.6-0.3-0.8-0.4c-0.1,0-0.1-0.1-0.2-0.1c-0.1-0.1-0.3-0.2-0.4-0.3
	l-0.1-0.1c-0.3-0.2-0.5-0.5-0.5-0.8c0-0.1-0.1-0.3-0.1-0.4c0,0,0-0.1,0-0.2c0,0,0-0.1,0-0.1c0-0.4,0.1-0.8,0.4-1.2l0,0
	c0.1-0.1,0.1-0.1,0.2-0.2c0,0,0.1-0.1,0.1-0.1c0.7-0.5,1.4-0.8,2.3-0.9c0.2,0,0.5,0,0.7,0c0.8,0,1.7,0.2,2.4,0.5c0,0,0,0,0.1,0
	c0.6,0.4,1.1,0.8,1.4,1.2l0,0.1l0.1,0.1h0.1h0.4h0.2v-0.2v-1.8v-0.1l-0.1-0.1l-0.1,0c-0.4-0.2-0.7-0.3-1.2-0.4
	c-0.4-0.1-0.7-0.2-1.1-0.3c-0.8-0.2-1.6-0.3-2.2-0.3c-1,0-2,0.2-2.8,0.5c-0.8,0.3-1.5,0.8-1.9,1.4c-0.5,0.6-0.7,1.3-0.7,2.1
	c0,0.1,0,0.1,0,0.2c0,0.1,0,0.2,0,0.2c0.1,0.7,0.3,1.3,0.8,1.7c0.3,0.3,0.7,0.7,1.1,0.9c0.1,0,0.2,0.1,0.4,0.2
	c0.9,0.4,1.8,0.8,2.8,1.1c0.3,0.1,0.5,0.2,0.8,0.2c0.8,0.2,1.3,0.4,1.6,0.5c0.7,0.2,1.3,0.6,1.7,1c0.2,0.1,0.3,0.3,0.4,0.4
	c0.2,0.3,0.3,0.6,0.3,0.9c0,0.1,0,0.1,0,0.2l0,0c0,0,0,0,0,0.1c0,0.5-0.2,0.9-0.5,1.3c-0.3,0.4-0.7,0.7-1.2,0.9
	c-0.4,0.2-0.8,0.3-1.2,0.4c-0.1,0-0.3,0-0.4,0.1c-0.1,0-0.1,0-0.2,0l-0.1,0l-0.1,0c-0.2,0-0.4,0-0.6,0c-0.3,0-0.7,0-1,0
	c-0.7,0-1.3-0.2-1.9-0.5l-0.1,0c-0.4-0.2-0.7-0.4-0.9-0.6c-0.3-0.3-0.7-0.7-1-1.2l0,0l-0.1-0.1h-0.1H164h-0.2v0.2v1.8v0.1l0.1,0.1
	l0.1,0c0.7,0.5,1.5,0.9,2.3,1.1c0.8,0.3,2,0.4,3.4,0.4c1.1,0,2.1-0.2,3-0.6c0.9-0.4,1.6-0.9,2.1-1.5c0.5-0.7,0.8-1.4,0.8-2.1
	c0-0.1,0-0.1,0-0.2C175.6,100.7,175.6,100.6,175.6,100.5"/>
<path class="st0" d="M191.9,100.8c0-0.1,0-0.2,0-0.3c-0.1-0.7-0.4-1.3-0.8-1.8c-0.5-0.6-1.2-1-1.9-1.4c-0.2-0.1-0.3-0.1-0.5-0.2
	c-0.6-0.2-1.4-0.5-2.3-0.8c-0.9-0.3-1.6-0.5-2.1-0.7c-0.3-0.1-0.6-0.3-0.8-0.4c-0.1,0-0.1-0.1-0.2-0.1c-0.1-0.1-0.3-0.2-0.4-0.3
	l-0.1-0.1c-0.3-0.2-0.5-0.5-0.5-0.8c-0.1-0.1-0.1-0.3-0.1-0.4c0,0,0-0.1,0-0.2c0,0,0-0.1,0-0.1c0-0.4,0.1-0.8,0.4-1.2l0,0
	c0.1-0.1,0.1-0.1,0.2-0.2c0,0,0.1-0.1,0.1-0.1c0.7-0.5,1.4-0.8,2.3-0.9c0.2,0,0.5,0,0.7,0c0.8,0,1.7,0.2,2.4,0.5c0,0,0,0,0.1,0
	c0.6,0.4,1.1,0.8,1.4,1.2l0,0.1l0.1,0.1h0.1h0.4h0.2v-0.2v-1.8v-0.1l-0.1-0.1l-0.1,0c-0.4-0.2-0.7-0.3-1.2-0.4
	c-0.4-0.1-0.7-0.2-1.1-0.3c-0.8-0.2-1.6-0.3-2.2-0.3c-1,0-2,0.2-2.8,0.5c-0.8,0.3-1.5,0.8-1.9,1.4c-0.5,0.6-0.7,1.3-0.7,2.1
	c0,0.1,0,0.1,0,0.2c0,0.1,0,0.2,0,0.2c0.1,0.7,0.3,1.3,0.8,1.7c0.3,0.3,0.7,0.7,1.1,0.9c0.1,0,0.2,0.1,0.4,0.2
	c0.9,0.4,1.8,0.8,2.8,1.1c0.3,0.1,0.5,0.2,0.8,0.2c0.8,0.2,1.3,0.4,1.6,0.5c0.7,0.2,1.3,0.6,1.7,1c0.2,0.1,0.3,0.3,0.4,0.4
	c0.2,0.3,0.3,0.6,0.3,0.9c0,0.1,0,0.1,0,0.2l0,0c0,0,0,0,0,0.1c0,0.5-0.2,0.9-0.5,1.3c-0.3,0.4-0.7,0.7-1.2,0.9
	c-0.4,0.2-0.8,0.3-1.2,0.4c-0.1,0-0.3,0-0.4,0.1c-0.1,0-0.1,0-0.2,0l-0.1,0l-0.1,0c-0.2,0-0.4,0-0.6,0c-0.3,0-0.7,0-1,0
	c-0.7,0-1.3-0.2-1.9-0.5l-0.1,0c-0.4-0.2-0.7-0.4-0.9-0.6c-0.3-0.3-0.7-0.7-1-1.2l0,0l-0.1-0.1h-0.1h-0.4h-0.2v0.2v1.8v0.1l0.1,0.1
	l0.1,0c0.7,0.5,1.5,0.9,2.3,1.1c0.8,0.3,2,0.4,3.4,0.4c1.1,0,2.1-0.2,3-0.6c0.9-0.4,1.6-0.9,2.1-1.5c0.5-0.7,0.8-1.4,0.8-2.1
	C192,100.9,191.9,100.8,191.9,100.8"/>
<path class="st0" d="M96.3,0.2h-0.6c-9.3,0-16.8,7.5-16.8,16.8v13.2c0,9.3,7.5,16.8,16.8,16.8h0.6c9.3,0,16.8-7.5,16.8-16.8V17
	C113.1,7.7,105.5,0.2,96.3,0.2 M112.4,30.2c0,8.9-7.2,16.1-16.1,16.1h-0.6c-8.9,0-16.1-7.2-16.1-16.1V17c0-8.9,7.2-16.1,16.1-16.1
	h0.6c8.9,0,16.1,7.2,16.1,16.1V30.2z"/>
<path class="st0" d="M96,5.9c0.3,0,0.5-0.2,0.5-0.5C96.4,5.2,96.2,5,96,5c-0.3,0-0.5,0.2-0.5,0.5C95.5,5.7,95.7,5.9,96,5.9"/>
<path class="st0" d="M96,41.2c-0.3,0-0.5,0.2-0.5,0.5c0,0.3,0.2,0.5,0.5,0.5c0.3,0,0.5-0.2,0.5-0.5C96.4,41.5,96.2,41.2,96,41.2"/>
<path class="st0" d="M103.9,18.3c0.7-1.1,0.8-2.5,0.2-3.7c-0.6-1.2-1.7-1.9-3-2c-0.1,0-0.3,0-0.4,0c-0.2,0-0.4,0-0.6,0.1
	c0,0,0-0.1,0-0.1c-0.8-1.5-2.2-2.5-3.9-2.6c-0.2,0-0.4,0-0.5,0c-1.7,0.1-3.2,1.1-3.9,2.6c0,0,0,0.1,0,0.1c-0.2,0-0.4-0.1-0.6-0.1
	c-0.1,0-0.3,0-0.4,0c-1.3,0.1-2.4,0.8-3,2c-0.6,1.2-0.5,2.6,0.2,3.7l1.1,1.6h-1.4v0.7h4.1l-0.4,5.1c-1,0.5-2.2,0.8-3.7,0.8v0.7
	c1.4,0,2.6-0.3,3.6-0.7l-0.8,10.3l0.7,0.1l0.8-10.7c1.8-1.1,2.9-2.7,3.5-3.9v14.6h0.7V22.2c0.6,1.2,1.7,2.9,3.5,3.9l0.8,10.7
	l0.7-0.1l-0.8-10.3c1,0.4,2.2,0.7,3.6,0.7v-0.7c-1.5,0-2.7-0.3-3.7-0.8l-0.4-5.1h4.1v-0.7h-1.4L103.9,18.3z M100.8,13.4
	c0.1,0,0.2,0,0.3,0c1,0.1,1.9,0.6,2.4,1.6c0.5,1,0.4,2.1-0.2,3l-1.4,2H100l-0.8-1.3l0.8-1.2c0.8-1.2,1-2.7,0.6-4.1
	C100.6,13.4,100.7,13.4,100.8,13.4 M99.1,19.9h-0.9l0.4-0.6L99.1,19.9z M98.6,17.9c-0.6-0.9-0.7-2-0.2-3c0.3-0.6,0.8-1.1,1.4-1.3
	c0.4,1.2,0.2,2.5-0.5,3.5L98.7,18L98.6,17.9z M92.4,12.9c0.7-1.3,1.9-2.1,3.3-2.2c0.2,0,0.3,0,0.5,0c1.4,0.1,2.7,0.9,3.3,2.2
	c0,0,0,0,0,0c-0.7,0.3-1.4,0.9-1.7,1.7c-0.6,1.2-0.5,2.6,0.2,3.7l0.2,0.4l-0.8,1.3h-2.9l-0.8-1.3l0.2-0.4c0.7-1.1,0.8-2.5,0.2-3.7
	C93.7,13.9,93.1,13.3,92.4,12.9C92.4,13,92.4,12.9,92.4,12.9 M93.6,19.9h-0.9l0.4-0.6L93.6,19.9z M92.1,13.6
	c0.6,0.3,1.1,0.7,1.4,1.3c0.5,1,0.4,2.1-0.2,3L93.2,18l-0.6-0.9C91.9,16.1,91.7,14.8,92.1,13.6 M88.5,17.9c-0.6-0.9-0.7-2-0.2-3
	c0.5-0.9,1.4-1.5,2.4-1.6c0.1,0,0.2,0,0.3,0c0.1,0,0.2,0,0.3,0c-0.4,1.4-0.2,2.9,0.6,4.1l0.8,1.2L92,19.9h-2.1L88.5,17.9z
	 M92.1,25.3l0.3-4.6h3C95.2,21.6,94.3,23.8,92.1,25.3 M99.8,25.3c-2.2-1.4-3.1-3.7-3.4-4.6h3L99.8,25.3z"/>
</svg>
