<?xml version="1.0" encoding="utf-8"?>
<!-- Generator: Adobe Illustrator 22.0.1, SVG Export Plug-In . SVG Version: 6.00 Build 0)  -->
<svg version="1.1" id="Capa_1" xmlns="http://www.w3.org/2000/svg" xmlns:xlink="http://www.w3.org/1999/xlink" x="0px" y="0px"
	 viewBox="0 0 60.5 65" style="enable-background:new 0 0 60.5 65;" xml:space="preserve">
<style type="text/css">
	.st0{fill:#977D85;}
</style>
<path class="st0" d="M43.7,2.8V2.3h0l0,0l-0.5,0H16.8l-0.5,0l0,0h-0.1v1h0L14.9,22c-3.9,2-8.4,3.1-13.4,3.1v1
	c5.4,0,9.8-1.2,13.4-2.9L12,60.5l1,0.1l2.8-38c4.1-2.3,7.1-5.3,9.2-8.1c2.3-3.1,3.7-6.1,4.5-8.3V60h1V6.2c0.8,2.2,2.2,5.2,4.5,8.3
	c2,2.8,5,5.8,9.2,8.1l2.8,38l1-0.1l-2.7-37.4c3.6,1.8,8,2.9,13.4,2.9v-1c-5,0-9.5-1-13.4-3.1L43.7,2.8z M24.1,13.9
	c-2.3,3.2-5.1,5.7-8.2,7.5l1.3-18.1h12.1C28.9,5,27.4,9.5,24.1,13.9 M35.9,13.9c-3.3-4.5-4.7-9-5.2-10.6h12.1l1.3,18.1
	C40.9,19.6,38.2,17.1,35.9,13.9"/>
</svg>
